<svg width="22" height="28" viewBox="0 0 22 28" fill="none" xmlns="http://www.w3.org/2000/svg">
<path d="M4 26.6901H18.2817C19.9385 26.6901 21.2817 25.347 21.2817 23.6901V11.6648C21.2817 10.8945 20.9854 10.1536 20.4541 9.59582L13.1543 1.93103C12.5881 1.33649 11.8029 1 10.9819 1H4C2.34315 1 1 2.34315 1 4V23.6901C1 25.347 2.34315 26.6901 4 26.6901Z" stroke="#27AE60"/>
<path d="M13.9013 20H12.2493L10.4993 17.508L8.73534 20H7.09734L9.57534 16.528L7.23734 13.238H8.88934L10.4993 15.534L12.0953 13.238H13.7473L11.4093 16.528L13.9013 20Z" fill="#27AE60"/>
</svg>
