<svg width="22" height="27" viewBox="0 0 22 27" fill="none" xmlns="http://www.w3.org/2000/svg">
<path d="M1 19.2018L4.10342 16.5639C4.84466 15.9339 5.93174 15.9286 6.67908 16.5514L9.40576 18.8236C10.1308 19.4278 11.1796 19.4429 11.9218 18.8598L15.6501 15.9304C16.3298 15.3963 17.2758 15.3594 17.9951 15.8389L20.7368 17.6667" stroke="#00D6FD"/>
<path d="M3 26H18.7368C19.8414 26 20.7368 25.1046 20.7368 24V11.0105C20.7368 10.497 20.5393 10.0031 20.1851 9.63122L12.556 1.62069C12.1786 1.22433 11.6551 1 11.1078 1H3C1.89543 1 1 1.89543 1 3V24C1 25.1046 1.89543 26 3 26Z" stroke="#00D6FD"/>
<circle cx="8.89513" cy="9.33361" r="2.19298" stroke="#00D6FD"/>
</svg>
