<svg width="22" height="27" viewBox="0 0 22 27" fill="none" xmlns="http://www.w3.org/2000/svg">
<path d="M3 26H19C20.1046 26 21 25.1046 21 24V11.0182C21 10.5001 20.7989 10.0022 20.4391 9.62935L12.7009 1.61114C12.324 1.22059 11.8045 1 11.2618 1H3C1.89543 1 1 1.89543 1 3V24C1 25.1046 1.89543 26 3 26Z" stroke="#FF6262"/>
<path d="M17.1417 16.538C17.0543 16.0584 16.6364 15.4315 15.1475 15.155C14.5745 15.0485 13.9138 15.0099 13.2079 15.0382C12.9263 14.7644 12.6482 14.4652 12.3796 14.1463C12.1111 13.8274 11.8638 13.5024 11.6421 13.1786C11.7926 12.4908 11.8692 11.8356 11.8635 11.2548C11.8489 9.74982 11.305 9.22945 10.847 9.05886C10.5588 8.94281 10.2271 9.0013 9.99648 9.20842C9.62471 9.52492 9.29245 10.1993 9.7951 11.6182C9.98911 12.1659 10.2859 12.7555 10.6634 13.3506C10.5662 13.7304 10.4454 14.1201 10.3025 14.5113C10.1596 14.9025 10.0009 15.2784 9.83029 15.6317C9.15728 15.8457 8.54966 16.1072 8.04774 16.4025C6.73804 17.173 6.56448 17.9075 6.64948 18.3879L6.6527 18.4044C6.71301 18.6843 6.90755 18.9165 7.17292 19.0256L7.19298 19.0334C7.31107 19.0763 7.44855 19.1053 7.60458 19.1053C8.05633 19.1053 8.66276 18.8618 9.39784 18.0059C9.7768 17.5646 10.1408 17.0137 10.4691 16.3903C10.8479 16.2843 11.2469 16.1938 11.6583 16.1215C12.0698 16.0492 12.4757 15.9982 12.868 15.9688C13.3905 16.4427 13.9216 16.8363 14.4292 17.1218C15.7481 17.8638 16.4726 17.6512 16.849 17.3397C17.0899 17.1464 17.2017 16.8405 17.1417 16.538ZM8.70385 17.4141C8.16205 18.045 7.75226 18.2246 7.54546 18.1886C7.54585 17.9794 7.79448 17.6084 8.51203 17.1863C8.69734 17.0772 8.8997 16.9732 9.11651 16.8749C8.98177 17.0706 8.8438 17.2511 8.70385 17.4141ZM10.9185 11.9409C10.8158 11.7268 10.7279 11.5174 10.6563 11.3152C10.3789 10.5322 10.4277 10.0887 10.5624 9.92815C10.7441 10.0332 10.9421 10.4332 10.9502 11.2636C10.9523 11.478 10.9416 11.7047 10.9185 11.9409ZM11.4996 15.2252C11.3187 15.2569 11.1399 15.2921 10.9635 15.3304C11.032 15.1641 11.0979 14.9945 11.1607 14.8226C11.2235 14.6506 11.2824 14.4786 11.3372 14.3073C11.4475 14.4496 11.5619 14.5911 11.6799 14.7314C11.798 14.8716 11.9179 15.0084 12.0395 15.1414C11.8607 15.1655 11.6804 15.1934 11.4996 15.2252ZM14.878 16.3292C14.6906 16.2238 14.499 16.1012 14.3052 15.9631C14.5427 15.9816 14.7685 16.0104 14.9801 16.0497C15.7992 16.2018 16.1602 16.4656 16.2324 16.6622C16.0503 16.7665 15.6036 16.7374 14.878 16.3292Z" fill="#FF6262"/>
</svg>
