<svg width="22" height="27" viewBox="0 0 22 27" fill="none" xmlns="http://www.w3.org/2000/svg">
<path d="M13.8864 19H12.3464L10.7784 14.044L9.21043 19H7.67043L5.57043 12.238H7.09643L8.52443 17.152L10.1344 12.238H11.4224L13.0324 17.152L14.4604 12.238H15.9864L13.8864 19Z" fill="#3050FF"/>
<path d="M3 26.3333H19C20.1046 26.3333 21 25.4379 21 24.3333V11.1333C21 10.6198 20.8025 10.1259 20.4483 9.75402L12.7022 1.62069C12.3248 1.22433 11.8013 1 11.254 1H3C1.89543 1 1 1.89543 1 3V24.3333C1 25.4379 1.89543 26.3333 3 26.3333Z" stroke="#3050FF"/>
</svg>
